<svg width="178" height="200" viewBox="0 0 178 200" fill="none" xmlns="http://www.w3.org/2000/svg">
<path d="M176.21 69.02C168.11 27.55 131.97 -0.0299756 92.56 2.44499e-05H0V194.57C0 199.99 7.14999 201.94 9.89999 197.28L49.22 130.67C50.43 128.61 50.12 126 48.45 124.28C40.94 116.56 35.52 106.56 33.44 94.93C28.99 70.12 45.3 41.42 68.88 32.52C101.39 20.25 137.05 39.92 144.03 73.95C149.25 99.42 132.87 128.87 108.49 137.89C96.85 142.2 84.82 142.41 73.86 139.35C71.55 138.71 69.11 139.7 67.89 141.77L55.8 162.26C53.7 165.81 56.26 170.29 60.38 170.29H92.63C102.08 170.28 111.58 168.68 120.82 165.45C160.38 151.61 184.25 110.14 176.21 69.02ZM49.43 20.05C36.53 27.87 26.45 39.27 20.15 52.52C19.31 54.29 16.67 53.72 16.67 51.76V16.68H48.45C50.28 16.68 50.99 19.1 49.43 20.05Z" fill="#FFCB05"/>
<path d="M98.1 117.11C115.73 112.02 125.94 93.54 120.85 75.9C115.76 58.27 97.28 48.06 79.64 53.15C62.01 58.24 51.8 76.72 56.89 94.36C61.99 111.99 80.47 122.19 98.1 117.11Z" fill="#FFCB05"/>
</svg>
